<?xml version="1.0" encoding="utf-8"?>
<!-- Generator: Adobe Illustrator 25.4.1, SVG Export Plug-In . SVG Version: 6.00 Build 0)  -->
<svg version="1.1" id="Capa_1" xmlns="http://www.w3.org/2000/svg" xmlns:xlink="http://www.w3.org/1999/xlink" x="0px" y="0px"
	 viewBox="0 0 360 72" style="enable-background:new 0 0 360 72;" xml:space="preserve">
<g>
	<g>
		<path d="M24.4,63.6V21.9h51.8c1.9,0,3.6,0.5,5,1.4c1.5,0.9,2.7,2.1,3.6,3.6c0.9,1.5,1.3,3.1,1.3,5v31.8h-9.4V32.2
			c0-0.2-0.1-0.4-0.3-0.6s-0.4-0.3-0.6-0.3H61c-0.2,0-0.4,0.1-0.6,0.3c-0.2,0.2-0.3,0.4-0.3,0.6v31.5h-9.5V32.2
			c0-0.2-0.1-0.4-0.3-0.6c-0.2-0.2-0.4-0.3-0.6-0.3h-15c-0.2,0-0.4,0.1-0.6,0.3c-0.2,0.2-0.3,0.4-0.3,0.6v31.5h-9.3V63.6z"/>
		<path d="M99.6,62.3c-1.5-0.9-2.7-2.1-3.6-3.6c-0.9-1.5-1.4-3.2-1.4-4.9v-22c0-1.8,0.5-3.5,1.4-5s2.1-2.7,3.6-3.6
			c1.5-0.9,3.2-1.4,4.9-1.4H127c1.8,0,3.5,0.4,5,1.3c1.5,0.9,2.7,2.1,3.6,3.6c0.9,1.5,1.3,3.2,1.3,5v15.7h-33v5.8
			c0,0.2,0.1,0.4,0.3,0.6s0.4,0.3,0.6,0.3h32.1v9.4h-32.5C102.8,63.6,101.1,63.2,99.6,62.3z M104.1,39h23.5v-6.8
			c0-0.2-0.1-0.4-0.3-0.6s-0.4-0.3-0.6-0.3h-21.8c-0.2,0-0.4,0.1-0.6,0.3c-0.2,0.2-0.3,0.4-0.3,0.6V39H104.1z"/>
		<path d="M149.6,62.3c-1.5-0.9-2.7-2.1-3.6-3.6c-0.9-1.5-1.4-3.2-1.4-4.9V9h9.4v12.9h16.3v9.4h-16.3v22c0,0.2,0.1,0.4,0.3,0.6
			s0.4,0.3,0.6,0.3h15.4v9.4h-15.8C152.6,63.6,151.1,63.2,149.6,62.3z"/>
		<path d="M185.9,63.6c-1.8,0-3.5-0.5-5-1.4s-2.7-2.1-3.6-3.6c-0.9-1.5-1.3-3.2-1.3-4.9V38h33v-5.8c0-0.2-0.1-0.4-0.3-0.6
			c-0.2-0.2-0.4-0.3-0.6-0.3H176v-9.4h32.5c1.8,0,3.5,0.4,5,1.3c1.5,0.9,2.7,2.1,3.6,3.6s1.3,3.2,1.3,5v31.8H185.9z M186.3,54.2
			h22.7v-7.7h-23.6v6.8c0,0.2,0.1,0.4,0.3,0.6C185.8,54.1,186.1,54.2,186.3,54.2z"/>
		<path d="M231.1,62.3c-1.5-0.9-2.7-2.1-3.6-3.6s-1.3-3.2-1.3-4.9V21.9h9.4v31.5c0,0.2,0.1,0.4,0.3,0.6c0.2,0.2,0.4,0.3,0.6,0.3
			h21.8c0.2,0,0.4-0.1,0.6-0.3c0.2-0.2,0.3-0.4,0.3-0.6V21.9h9.4v31.8c0,1.8-0.4,3.4-1.3,4.9c-0.9,1.5-2.1,2.7-3.6,3.6
			s-3.2,1.4-5,1.4h-22.5C234.2,63.6,232.6,63.2,231.1,62.3z"/>
		<path d="M276.2,63.6V21.9h32.5c1.8,0,3.5,0.5,5,1.4s2.7,2.1,3.6,3.6c0.9,1.5,1.3,3.1,1.3,5v31.8h-9.4V32.2c0-0.2-0.1-0.4-0.3-0.6
			c-0.2-0.2-0.4-0.3-0.6-0.3h-21.8c-0.2,0-0.4,0.1-0.6,0.3c-0.2,0.2-0.3,0.4-0.3,0.6v31.5h-9.4V63.6z"/>
		<path d="M326.2,17.7V8.2h9.4v9.5H326.2z M326.2,63.6V21.9h9.4v41.8h-9.4V63.6z"/>
	</g>
</g>
</svg>
